<?xml version="1.0" encoding="utf-8"?>
<!-- Generator: Adobe Illustrator 24.3.0, SVG Export Plug-In . SVG Version: 6.00 Build 0)  -->
<svg version="1.1" id="logo_complet" xmlns="http://www.w3.org/2000/svg" xmlns:xlink="http://www.w3.org/1999/xlink" x="0px"
	 y="0px" viewBox="0 0 562 490.1" style="enable-background:new 0 0 562 490.1;" xml:space="preserve">
<style type="text/css">
	.st0{fill:#74160E;}
	.st1{fill:#020202;}
	.st2{fill:#020202;stroke:#1D1D1B;stroke-miterlimit:10;}
	.st3{fill:#FFFFFF;}
	.st4{fill:#5E111A;}
	.st5{enable-background:new    ;}
	.st6{fill:#5E111A;stroke:#FFFFFF;stroke-miterlimit:10;}
</style>
<path d="M231.3,257.7c-2.5,0.2-4.5,2.2-4.6,4.7c-0.2,10.5,2.9,36.6,37.5,41.5c52.8,7.3,45.5-29.6,46.5-34c0.1-0.3,0.5,0.3,0.5,0
	c0.1-2.9,17.3-22.8,3.3-45.9c-0.4-0.6-0.8-1.1-1.4-1.5c-3.8-2.6-19.6-13-29.5-15.4c-1.6-0.4-3.2-0.8-4.9-1.3
	c-15-4.7-78.5-26.7-78.8-60.3c0-0.1,0-0.3,0-0.4c-0.4-3.3-4.9-46.2,40.2-66.3l0.3-0.1c2.6-1,34-11.9,67.9,3.8
	c25.1,11.6,28.9,2.6,29-3.7c0-2.6,2.2-4.7,4.9-4.7h0.8c2.4,0,4.6,1.8,4.9,4.3l6.9,65.4c0.3,2.6-1.6,5-4.4,5.3c-0.2,0-1.7,0-1.9,0
	h-2.2c-2.2,0-4.1-1.5-4.6-3.6c-2.6-10.2-12.2-39.1-40.8-50.1c-4-1.5-8.1-2.8-12.3-3.7C258,85,228.2,105.4,234,130
	c1.9,8.3,8,16.9,21.6,24.3c27.1,14.8,53.2,30.9,78.5,48.5c0,0,48.1,35.1,19.8,75.4s-65.1,38.2-65.1,38.2s-36.4-0.2-59.1-10.9
	c-5.3-2.5-11.4-2.3-16.5,0.4c-2.1,1.2-3.8,2.9-4.1,5.2c-0.3,1.8-1.6,3.4-3.4,3.9l0,0c-2.6,0.7-5.2-0.8-5.9-3.3
	c0-0.2-0.1-0.3-0.1-0.5l-7.7-49.1c-0.4-2.3-2.4-4-4.7-4h-16.5c-2.6,0-4.8-2-4.8-4.6v-3.8c0-2.5,2.1-4.6,4.8-4.6l0,0l67.4,0.2
	c2.6,0,4.8,2,4.8,4.6v2.7c0,2.5-2,4.6-4.6,4.8L231.3,257.7z"/>
<path d="M256,147.8l8.8-12.6l-10.5-7l-12.7,15.5L238,139l-44,73.5l8.5,5.5l-7,8l11,6l4-8l26.5,12.1c0,0,13.3-13.9,19-19.6V147.8z"/>
<polygon points="284,134.2 283.3,207.1 292,207.1 292,142.1 303.5,139.3 "/>
<ellipse transform="matrix(0.4641 -0.8858 0.8858 0.4641 48.3899 285.5704)" class="st0" cx="260.2" cy="102.8" rx="8.2" ry="8.2"/>
<circle class="st0" cx="294" cy="115" r="9"/>
<circle class="st0" cx="311" cy="88" r="6"/>
<circle class="st0" cx="279" cy="50" r="8"/>
<circle class="st1" cx="294" cy="112.3" r="5.7"/>
<circle class="st1" cx="309" cy="88" r="3"/>
<circle class="st1" cx="279" cy="52" r="6.1"/>
<circle class="st2" cx="262.8" cy="101.3" r="5.1"/>
<polygon class="st3" points="255,147.8 255,225.1 283,225.1 283.7,134.4 "/>
<circle class="st3" cx="272.5" cy="253.5" r="52.5"/>
<path class="st4" d="M242.1,260.9c-7.7,0.5-11.7,9.4-7.3,15.7c7.1,10.2,19.3,24,32.8,22.6C289,297,309,283.9,312,279.5
	s-29,3.4-38-5.5C267.5,267.5,254.6,260,242.1,260.9z"/>
<path class="st0" d="M238.3,277c10.5-2.4,21.5-0.3,30.3,5.7c9.1,6,20.6,7.3,30.8,3.5c0,0-14.8,6.8-27.9,9.3
	c-6.1,1.1-12.4-0.4-17.4-4C248.5,287.3,240.9,281.2,238.3,277z"/>
<g class="st5">
	<path d="M186.8,361.7c0-1.7,0.5-3.3,1.4-4.7c0.9-1.4,2.3-2.5,4.1-3.4s3.6-1.3,5.3-1.3c2.5,0,4.6,0.3,6.3,0.8
		c0.2,2.5,0.4,4.6,0.4,6.2l-1.8,0.3c-0.9-3.2-3-4.8-6.1-4.8c-1.3,0-2.5,0.4-3.5,1.3s-1.5,2-1.5,3.3c0,0.8,0.2,1.4,0.6,2
		c0.4,0.6,1,1.1,1.8,1.6c0.7,0.5,2.3,1.2,4.6,2.2c2.5,1.1,4.4,2.4,5.6,3.8c1.2,1.5,1.8,3.2,1.8,5.1s-0.5,3.5-1.4,5s-2.3,2.6-4.2,3.5
		s-3.8,1.3-5.9,1.3c-1.7,0-3.3-0.2-4.7-0.5s-2.6-0.8-3.3-1.4c-0.1-0.8-0.2-2.1-0.3-3.9c-0.1-1.7-0.2-2.8-0.2-3.3l1.6-0.3
		c0.6,2.3,1.4,4,2.6,5.1c1.2,1.2,2.9,1.7,5.1,1.7c1.8,0,3.1-0.5,4-1.4s1.3-2.1,1.3-3.7c0-0.9-0.2-1.6-0.6-2.3
		c-0.4-0.6-1-1.2-1.7-1.7s-2.1-1.2-4.2-2.2C189.2,368.2,186.8,365.3,186.8,361.7z"/>
	<path d="M218.3,373l0.1,6.3c0.1,1.1,0.2,1.7,0.4,2.1c0.2,0.3,0.7,0.5,1.5,0.5h0.9v1.8l-7.2-0.1l-5,0.1v-1.8l1.6-0.1
		c0.5,0,0.9-0.2,1.1-0.5c0.2-0.3,0.3-1,0.4-2l0.1-5.5v-2.5c0-1.2,0-2.2-0.1-2.8c-0.1-0.7-0.2-1.2-0.4-1.5c-0.2-0.4-0.5-0.6-0.8-0.8
		s-0.8-0.3-1.3-0.5l0.1-1.5c1-0.1,2.4-0.3,4.2-0.7c1.8-0.3,2.9-0.6,3.2-0.7l1.4,0.4L218.3,373z M211.2,353.5v-0.2
		c0.5-0.2,1.3-0.5,2.6-0.8c1.2-0.3,2.4-0.5,3.6-0.7l1.6,5.1l-0.2,0.3c-2.5,0.6-4.4,1.2-5.6,1.8L211.2,353.5z"/>
	<path d="M239.5,370c0-2.6-1.2-3.9-3.7-3.9c-0.9,0-2,0.4-3.5,1.2v7.6c0,0.2,0,1.2,0,2.8c0,1.6,0.1,2.7,0.2,3.1
		c0.1,0.5,0.4,0.8,0.7,0.9c0.4,0.1,0.9,0.2,1.6,0.2v1.8l-6.3-0.1l-5,0.1v-1.8h0.9c0.7,0,1.1-0.2,1.3-0.6s0.3-1.6,0.3-3.7
		s0-3.4,0-3.8V371c0-0.9,0-1.7-0.1-2.3c-0.1-0.6-0.2-1-0.4-1.4s-0.4-0.6-0.6-0.8c-0.3-0.2-0.8-0.4-1.6-0.7l0.1-1.3
		c1-0.1,2.3-0.4,3.9-0.7c1.6-0.4,2.8-0.7,3.7-0.9l1.2,0.4v2.2c1.5-0.8,2.9-1.4,4-1.8s2.3-0.6,3.3-0.6c1.9,0,3.4,0.6,4.5,1.8
		c1.1,1.2,1.6,2.8,1.6,4.8v4.2l0.1,5.7c0,1,0.1,1.6,0.3,1.9s0.7,0.4,1.6,0.5h0.8v1.8l-5.9-0.1l-5.7,0.1V382c1.1-0.1,1.7-0.2,1.9-0.3
		c0.2-0.1,0.3-0.4,0.4-0.7c0.1-0.4,0.2-0.8,0.2-1.4l0.1-4.5L239.5,370L239.5,370z"/>
	<path d="M267.3,384c-1.1,0-2-0.2-2.7-0.6s-1.3-1.2-1.7-2.2c-2.5,2.1-4.8,3.1-6.9,3.1c-1.6,0-2.9-0.5-3.9-1.5s-1.4-2.4-1.4-4
		c0-1.3,0.3-2.4,1-3.3c0.6-0.9,1.6-1.6,2.9-2.2s3.6-1.1,6.7-1.7l0.9-0.2v-1.6c0-1.4-0.3-2.4-1-3s-1.8-0.9-3.2-0.9
		c-1.1,0-2.6,0.3-4.4,0.9H253l-0.3-1.7c1.4-0.6,3-1,4.8-1.5c1.7-0.4,3-0.6,3.9-0.6c4.8,0,7.2,2.2,7.2,6.5v8.4c0,2.4,0.6,3.5,1.7,3.5
		c0.7,0,1.4-0.2,2.1-0.6l0.6,1.5c-0.7,0.5-1.6,0.9-2.6,1.2S268.2,384,267.3,384z M262.5,379.4c-0.2-1.2-0.3-3.3-0.3-6.4
		c-0.2,0.1-1.1,0.3-2.7,0.8c-0.9,0.3-1.5,0.8-1.9,1.5s-0.6,1.5-0.6,2.7c0,0.9,0.2,1.7,0.6,2.1c0.4,0.5,0.9,0.7,1.5,0.7
		C260.2,380.8,261.3,380.3,262.5,379.4z"/>
	<path d="M288.9,353l6.3-0.1v1.7l-2,0.2c-0.6,0.1-0.9,0.2-1.1,0.5s-0.3,0.9-0.4,2s-0.2,3.2-0.2,6.6v17.4h5.7c2,0,3.5-0.2,4.3-0.6
		c1.4-0.7,2.3-2.1,2.6-4.1l0.2-1.3l2,0.1l-0.3,5.2l-0.1,3l-0.5,0.3c-1.1-0.2-4-0.3-8.7-0.3h-7.9l-7.1,0.1v-1.6l1.9-0.2
		c0.6,0,0.9-0.2,1.1-0.5s0.3-1,0.4-2.1s0.1-3.9,0.1-8.4v-7.1c0-1.6,0-3.3-0.1-5.1c-0.1-1.8-0.2-3-0.4-3.4c-0.2-0.4-0.6-0.6-1.2-0.7
		l-2-0.1v-1.6L288.9,353z"/>
	<path d="M325.9,384c-1.1,0-2-0.2-2.7-0.6s-1.3-1.2-1.7-2.2c-2.5,2.1-4.8,3.1-6.9,3.1c-1.6,0-2.9-0.5-3.9-1.5s-1.4-2.4-1.4-4
		c0-1.3,0.3-2.4,1-3.3c0.6-0.9,1.6-1.6,2.9-2.2s3.6-1.1,6.7-1.7l0.9-0.2v-1.6c0-1.4-0.3-2.4-1-3s-1.8-0.9-3.2-0.9
		c-1.1,0-2.6,0.3-4.4,0.9h-0.6l-0.3-1.7c1.4-0.6,3-1,4.8-1.5c1.7-0.4,3-0.6,3.9-0.6c4.8,0,7.2,2.2,7.2,6.5v8.4
		c0,2.4,0.6,3.5,1.7,3.5c0.7,0,1.4-0.2,2.1-0.6l0.6,1.5c-0.7,0.5-1.6,0.9-2.6,1.2S326.8,384,325.9,384z M321.1,379.4
		c-0.2-1.2-0.3-3.3-0.3-6.4c-0.2,0.1-1.1,0.3-2.7,0.8c-0.9,0.3-1.5,0.8-1.9,1.5s-0.6,1.5-0.6,2.7c0,0.9,0.2,1.7,0.6,2.1
		c0.4,0.5,0.9,0.7,1.5,0.7C318.8,380.8,320,380.3,321.1,379.4z"/>
	<path d="M340.9,365.3c1.2-0.7,2.5-1.2,3.8-1.7c1.3-0.4,2.5-0.7,3.5-0.7c2.5,0,4.5,0.9,6.1,2.7c1.6,1.8,2.4,4.1,2.4,6.9
		c0,2.2-0.6,4.2-1.7,6s-2.7,3.2-4.7,4.2s-4.3,1.5-6.7,1.5c-2.2,0-4.4-0.3-6.6-0.9l-1,1l-1.6-0.3c0.3-2.2,0.4-6.5,0.4-13v-7
		c0-4.4-0.1-7.8-0.2-10.3l-2.8,0.7l-0.4-1.6c3.8-1,6.6-1.9,8.7-2.8l1.3,0.4c-0.2,2.9-0.3,6.7-0.3,11.5v3.4L340.9,365.3L340.9,365.3z
		 M340.9,380.9c0.8,0.6,2.1,0.9,3.9,0.9c1.6,0,2.9-0.7,3.8-2.2s1.4-3.5,1.4-6c0-2.4-0.5-4.2-1.4-5.5s-2.2-2-3.8-2
		c-0.5,0-1.1,0.1-1.9,0.4s-1.4,0.6-2,1V380.9z"/>
</g>
<circle class="st0" cx="228.5" cy="100.9" r="8.2"/>
<circle class="st2" cx="231" cy="99.5" r="5.1"/>
<circle class="st0" cx="238.4" cy="62.8" r="4.2"/>
<circle class="st2" cx="239.7" cy="62.1" r="2.6"/>
<rect x="-808.3" y="-379.5" class="st6" width="227.4" height="328"/>
<rect x="-1105.5" y="-369.9" width="227.4" height="328"/>
</svg>
