<svg width="34" height="34" viewBox="0 0 34 34" fill="none" xmlns="http://www.w3.org/2000/svg">
<g clip-path="url(#clip0_1092_3424)">
<path d="M9.34292 24.6568C9.55064 24.8645 9.82211 24.9681 10.0941 24.9681C10.3661 24.9681 10.6376 24.8645 10.8453 24.6568L17.0004 18.5018L23.1554 24.6568C23.3631 24.8645 23.6346 24.9681 23.9066 24.9681C24.1786 24.9681 24.4501 24.8645 24.6578 24.6568C24.857 24.4576 24.9689 24.1874 24.9689 23.9056C24.9689 23.6239 24.857 23.3537 24.6578 23.1544L18.5027 16.9994L24.6578 10.8443C24.7593 10.7463 24.8402 10.6291 24.8959 10.4994C24.9516 10.3698 24.9809 10.2304 24.9821 10.0893C24.9834 9.94823 24.9565 9.80832 24.903 9.67775C24.8496 9.54717 24.7707 9.42854 24.671 9.32878C24.5712 9.22902 24.4526 9.15012 24.322 9.0967C24.1914 9.04328 24.0515 9.01639 23.9104 9.01762C23.7694 9.01884 23.6299 9.04815 23.5003 9.10384C23.3707 9.15952 23.2534 9.24047 23.1554 9.34195L17.0004 15.497L10.8453 9.34195C10.7473 9.24047 10.63 9.15952 10.5004 9.10384C10.3708 9.04815 10.2314 9.01884 10.0903 9.01762C9.94921 9.01639 9.8093 9.04328 9.67872 9.0967C9.54815 9.15012 9.42952 9.22902 9.32975 9.32878C9.22999 9.42854 9.1511 9.54717 9.09768 9.67775C9.04425 9.80832 9.01737 9.94823 9.01859 10.0893C9.01982 10.2304 9.04913 10.3698 9.10482 10.4994C9.1605 10.6291 9.24144 10.7463 9.34292 10.8443L15.498 16.9994L9.34292 23.1544C9.14374 23.3537 9.03184 23.6239 9.03184 23.9056C9.03184 24.1874 9.14374 24.4576 9.34292 24.6568Z" fill="#740606"/>
<path d="M17 34C21.5406 34 25.8097 32.2315 29.0201 29.0206C32.2315 25.8097 34 21.5406 34 17C34 12.4594 32.2315 8.19028 29.0201 4.97994C25.8097 1.76853 21.5406 0 17 0C12.4594 0 8.19028 1.76853 4.97994 4.97941C1.76853 8.19028 0 12.4594 0 17C0 21.5406 1.76853 25.8097 4.97994 29.0201C8.19028 32.2315 12.4594 34 17 34ZM6.48231 6.48231C9.29156 3.67253 13.0268 2.125 17 2.125C20.9732 2.125 24.7084 3.67253 27.5177 6.48231C30.3275 9.29156 31.875 13.0268 31.875 17C31.875 20.9732 30.3275 24.7084 27.5177 27.5177C24.7084 30.3275 20.9732 31.875 17 31.875C13.0268 31.875 9.29156 30.3275 6.48231 27.5177C3.67253 24.7084 2.125 20.9732 2.125 17C2.125 13.0268 3.67253 9.29156 6.48231 6.48231Z" fill="#740606"/>
</g>
<defs>
<clipPath id="clip0_1092_3424">
<rect width="34" height="34" fill="white"/>
</clipPath>
</defs>
</svg>
